# xmcd
#
# Track frame offsets:
# 150
# 11657
# 21202
# 30160
# 45435
# 55965
# 67332
# 78105
# 88280
# 102292
# 113772
# 126372
# 137610
# 149727
# 163497
# 172440
# 183052
# 197510
# 212722
#
# Disc length: 2995 seconds
#
#
# Revision: 0
# Processed by: cddbd v1.5.1PL2 Copyright (c) Steve Scherf et al.
# Submitted via: FreeRIP 2.945 
#
DISCID=140bb113
DTITLE=Sonny James - Young Love:The Complete Recordings:1952-62 Disc 6
DYEAR=2002
DGENRE=Country
TTITLE0=No Lana
TTITLE1=The Day's Not Over Yet
TTITLE2=Time's Running Backwards For Me
TTITLE3=The Legend Of The Brown Mountain Light
TTITLE4=Dance Her By Me
TTITLE5=A Mile And A Quarter
TTITLE6=Just One More Lie
TTITLE7=Young Love
TTITLE8=Shiloh
TTITLE9=Jenny Lou
TTITLE10=Lady Be Kind
TTITLE11=Gotta Travel On
TTITLE12=Wanderin'
TTITLE13=Rollin' Stone
TTITLE14=Sugar Cane Song
TTITLE15=My Heart And The Pine
TTITLE16=I Gave My Love A Cherry
TTITLE17=On The Longest Day
TTITLE18=The Only Cure
EXTD=Bear Family\nBCD 16373 6 FK
EXTT0=
EXTT1=
EXTT2=
EXTT3=
EXTT4=
EXTT5=
EXTT6=
EXTT7=
EXTT8=
EXTT9=
EXTT10=
EXTT11=
EXTT12=
EXTT13=
EXTT14=
EXTT15=
EXTT16=
EXTT17=
EXTT18=
PLAYORDER=
